<?xml version="1.0" encoding="utf-8"?>
<!-- Generator: Adobe Illustrator 22.1.0, SVG Export Plug-In . SVG Version: 6.00 Build 0)  -->
<svg version="1.1" id="レイヤー_1" xmlns="http://www.w3.org/2000/svg" xmlns:xlink="http://www.w3.org/1999/xlink" x="0px"
	 y="0px" viewBox="0 0 151 151" style="enable-background:new 0 0 151 151;" xml:space="preserve">
<style type="text/css">
	.st0{fill:#33487C;}
	.st1{fill:#FFFFFF;}
</style>
<g>
	<g>
		<path class="st0" d="M32.1,149C15.5,149,2,135.5,2,118.9V32.1C2,15.5,15.5,2,32.1,2h86.8C135.5,2,149,15.5,149,32.1v86.8
			c0,16.6-13.5,30.1-30.1,30.1H32.1z"/>
		<path class="st1" d="M118.9,3.5c15.8,0,28.6,12.8,28.6,28.6v86.8c0,15.8-12.8,28.6-28.6,28.6H32.1c-15.8,0-28.6-12.8-28.6-28.6
			V32.1c0-15.8,12.8-28.6,28.6-28.6H118.9 M118.9,0.5H32.1C14.7,0.5,0.5,14.7,0.5,32.1v86.8c0,17.5,14.2,31.6,31.6,31.6h86.8
			c17.5,0,31.6-14.2,31.6-31.6V32.1C150.5,14.7,136.3,0.5,118.9,0.5L118.9,0.5z"/>
	</g>
	<path class="st1" d="M106.8,93.7c-2.9,2.9-7.6,2.9-10.6,0l0,0L77,74.4L57.7,93.7h0c-2.9,2.9-7.6,2.9-10.6,0l0,0
		c-2.9-2.9-2.9-7.6,0-10.6l0,0l24.6-24.5c1.4-1.4,3.3-2.2,5.3-2.2l0,0c2,0,3.9,0.8,5.3,2.2l0,0l24.6,24.5c1.5,1.5,2.2,3.4,2.2,5.3
		l0,0C109,90.3,108.3,92.2,106.8,93.7L106.8,93.7z"/>
</g>
<g>
</g>
<g>
</g>
<g>
</g>
<g>
</g>
<g>
</g>
<g>
</g>
<g>
</g>
<g>
</g>
<g>
</g>
<g>
</g>
<g>
</g>
<g>
</g>
<g>
</g>
<g>
</g>
<g>
</g>
</svg>
